<?xml version="1.0" standalone="no"?>
<!DOCTYPE svg PUBLIC "-//W3C//DTD SVG 20010904//EN"
 "http://www.w3.org/TR/2001/REC-SVG-20010904/DTD/svg10.dtd">
<svg version="1.0" xmlns="http://www.w3.org/2000/svg"
 width="512.000000pt" height="512.000000pt" viewBox="0 0 512.000000 512.000000"
 preserveAspectRatio="xMidYMid meet">

<g transform="translate(0.000000,512.000000) scale(0.100000,-0.100000)"
fill="#000000" stroke="none">
<path d="M1075 5110 c-188 -38 -343 -182 -399 -369 -29 -100 -15 -175 40 -204
22 -12 26 -21 30 -73 5 -79 31 -157 70 -216 l33 -48 -129 0 c-151 0 -222 -18
-298 -74 -83 -61 -125 -129 -161 -259 -32 -117 -28 -148 21 -173 24 -12 33
-13 55 -2 34 16 46 39 78 151 29 97 62 144 129 180 41 22 46 22 608 25 l566 3
-28 -53 c-18 -33 -70 -205 -140 -462 -125 -455 -127 -467 -76 -570 32 -65 65
-97 145 -140 40 -21 59 -36 51 -41 -29 -18 -50 -90 -50 -172 l0 -83 -445 0
-445 0 0 514 0 515 -26 20 c-34 27 -64 27 -98 0 -26 -20 -26 -22 -26 -149 l0
-130 -26 10 c-34 13 -74 -6 -92 -43 -25 -52 9 -95 96 -122 21 -6 22 -10 22
-152 0 -112 -3 -144 -12 -140 -168 68 -289 124 -311 145 -55 52 -55 84 3 289
17 59 30 121 30 140 0 41 -30 73 -69 73 -54 0 -68 -24 -117 -200 -52 -191 -54
-244 -9 -335 38 -79 87 -115 243 -181 75 -31 161 -68 190 -80 l52 -23 0 -1048
0 -1049 -34 -12 c-53 -19 -122 -87 -153 -149 -71 -146 -4 -327 146 -397 45
-21 53 -21 637 -21 l591 0 50 24 51 24 49 -24 48 -24 595 0 595 0 48 24 49 24
51 -24 50 -24 591 0 c584 0 592 0 637 21 150 70 217 251 146 397 -31 62 -100
130 -153 149 l-34 12 0 1049 0 1048 53 23 c28 12 115 49 192 82 155 65 210
107 247 190 38 86 35 133 -16 319 -26 93 -52 176 -59 183 -32 39 -93 33 -123
-13 -16 -24 -15 -30 11 -123 60 -218 65 -243 55 -281 -15 -57 -54 -85 -209
-150 -79 -34 -145 -61 -147 -61 -2 0 -4 65 -4 144 0 141 1 145 23 151 86 27
120 70 95 122 -18 37 -58 56 -92 43 l-26 -10 0 130 c0 127 0 129 -26 149 -15
12 -37 21 -49 21 -12 0 -34 -9 -49 -21 l-26 -20 0 -515 0 -514 -445 0 -445 0
0 83 c0 82 -21 154 -50 172 -8 5 11 20 51 41 80 43 113 75 145 140 51 103 49
115 -76 570 -70 257 -122 429 -140 462 l-28 53 566 -3 c562 -3 567 -3 608 -25
65 -35 100 -83 129 -176 14 -46 25 -89 25 -95 0 -22 48 -62 73 -62 37 0 77 36
77 71 0 39 -38 175 -63 224 -49 98 -127 165 -229 197 -45 13 -91 18 -188 18
l-129 0 33 48 c39 59 65 137 70 216 4 52 8 61 30 73 100 52 57 270 -82 415
-100 105 -205 155 -347 165 -259 18 -501 -171 -545 -424 -13 -75 3 -124 48
-150 27 -16 30 -23 35 -87 6 -78 35 -163 73 -213 13 -17 24 -34 24 -37 0 -3
-58 -6 -130 -6 -92 0 -143 -5 -176 -16 -43 -14 -52 -14 -104 0 -38 11 -98 16
-182 16 l-127 0 35 58 c43 72 64 140 64 211 0 52 2 57 28 68 34 15 62 61 62
100 0 45 -28 142 -58 203 -82 164 -275 280 -466 280 -232 -1 -442 -166 -501
-395 -23 -89 -20 -119 16 -160 17 -19 37 -35 45 -35 10 0 14 -15 14 -58 0 -74
20 -142 64 -214 l35 -58 -128 0 c-86 0 -144 -5 -179 -15 -47 -14 -57 -14 -104
0 -35 10 -94 15 -180 15 -70 0 -128 2 -128 4 0 3 13 24 28 48 43 64 63 125 69
204 5 65 8 71 35 87 45 26 61 75 48 150 -35 196 -196 366 -391 412 -68 16
-159 18 -224 5z m238 -170 c99 -37 191 -140 222 -247 l6 -23 -360 0 c-410 0
-381 -7 -337 86 82 176 281 254 469 184z m1319 19 c138 -29 252 -135 283 -261
l7 -28 -362 0 -362 0 7 28 c35 147 185 264 347 271 15 1 51 -4 80 -10z m1376
1 c115 -21 212 -93 261 -192 54 -107 84 -98 -329 -98 l-360 0 6 28 c28 115
145 228 268 258 64 16 91 16 154 4z m-2551 -494 c-15 -151 -130 -258 -277
-259 -153 -1 -279 117 -280 261 l0 52 281 0 282 0 -6 -54z m1383 6 c0 -60 -47
-159 -93 -198 -125 -105 -312 -87 -408 40 -41 54 -59 104 -59 165 l0 41 280 0
280 0 0 -48z m1380 -5 c0 -142 -129 -261 -280 -260 -147 1 -262 108 -277 259
l-6 54 282 0 281 0 0 -53z m-1068 -427 c50 -14 117 -67 139 -110 26 -49 229
-792 229 -835 0 -45 -22 -88 -57 -113 -22 -15 -123 -60 -290 -129 -10 -4 -13
28 -13 140 l0 145 43 17 c59 23 77 43 77 82 0 48 -31 76 -81 71 l-39 -4 0 124
c0 117 -1 124 -25 147 -30 31 -71 32 -102 3 l-23 -21 0 -514 0 -513 -450 0
-450 0 0 512 c0 512 0 512 -22 535 -29 31 -72 30 -103 -2 -24 -23 -25 -30 -25
-147 l0 -124 -39 4 c-50 5 -81 -23 -81 -71 0 -39 18 -59 78 -82 l42 -17 0
-144 0 -144 -22 9 c-108 41 -277 116 -292 129 -28 26 -46 67 -46 109 0 21 49
214 108 430 126 455 132 467 250 509 47 17 1134 20 1194 4z m-1235 -1337 l43
-18 0 -367 c0 -366 0 -367 23 -392 32 -36 67 -42 100 -16 l27 21 0 220 0 219
185 0 185 0 0 -750 0 -750 -185 0 -185 0 0 393 c0 381 -1 394 -20 412 -29 27
-80 22 -107 -10 l-23 -26 0 -527 0 -527 -46 -22 -46 -23 -49 25 -49 25 0 1038
c0 570 4 1042 8 1047 8 11 71 43 87 44 5 1 29 -7 52 -16z m1379 1 c22 -9 42
-21 46 -28 4 -6 8 -478 8 -1048 l0 -1038 -49 -25 -49 -25 -46 23 -46 22 0
1050 0 1051 43 16 c53 21 48 21 93 2z m-2196 -1084 l0 -750 -185 0 -185 0 0
750 0 750 185 0 185 0 0 -750z m520 0 l0 -750 -180 0 -180 0 0 750 0 750 180
0 180 0 0 -750z m1380 0 l0 -750 -180 0 -180 0 0 750 0 750 180 0 180 0 0
-750z m860 0 l0 -750 -180 0 -180 0 0 750 0 750 180 0 180 0 0 -750z m530 0
l0 -750 -185 0 -185 0 0 750 0 750 185 0 185 0 0 -750z m-3290 -1191 l0 -280
-237 3 c-206 3 -242 5 -271 21 -51 28 -74 72 -69 135 5 75 47 116 140 136 58
13 67 35 67 156 l0 110 185 0 185 0 0 -281z m1380 0 l0 -280 -237 3 c-268 3
-282 7 -322 78 -51 90 -2 183 108 210 77 18 85 34 89 161 l4 109 179 0 179 0
0 -281z m1380 0 l0 -281 -237 4 c-131 2 -245 7 -254 11 -15 7 -15 13 -1 63 15
52 12 114 -9 183 -3 10 13 19 49 30 82 24 92 43 92 167 l0 104 180 0 180 0 0
-281z"/>
</g>
</svg>
